PathFileType	4	(X/Y/Z)	C:/Users/opensim2020/Desktop/walking_exp_matlab/subject03_walking08_straight_03.trc																																																																																																																																																							
DataRate	CameraRate	NumFrames	NumMarkers	Units	OrigDataRate	OrigDataStartFrame	OrigNumFrames																																																																																																																																																			
100	100	4	51	mm	100	2544	299																																																																																																																																																			
Frame#	Time	LFHD			RFHD			LBHD			RBHD			C7			T10			CLAV			STRN			RBAK			LSHO			LUPA			LELB			LFRM			LWRA			LWRB			LFIN			RSHO			RUPA			RELB			RFRM			RWRA			RWRB			RFIN			LASI			RASI			LPSI			RPSI			LTHI			LKNE			LTIB			LANK			LHEE			LTOE			RTHI			RKNE			RTIB			RANK			RHEE			RTOE			*39			*40			*41			*42			*43			*44			*45			*46			*47			*48			*49			*50		
		X1	Y1	Z1	X2	Y2	Z2	X3	Y3	Z3	X4	Y4	Z4	X5	Y5	Z5	X6	Y6	Z6	X7	Y7	Z7	X8	Y8	Z8	X9	Y9	Z9	X10	Y10	Z10	X11	Y11	Z11	X12	Y12	Z12	X13	Y13	Z13	X14	Y14	Z14	X15	Y15	Z15	X16	Y16	Z16	X17	Y17	Z17	X18	Y18	Z18	X19	Y19	Z19	X20	Y20	Z20	X21	Y21	Z21	X22	Y22	Z22	X23	Y23	Z23	X24	Y24	Z24	X25	Y25	Z25	X26	Y26	Z26	X27	Y27	Z27	X28	Y28	Z28	X29	Y29	Z29	X30	Y30	Z30	X31	Y31	Z31	X32	Y32	Z32	X33	Y33	Z33	X34	Y34	Z34	X35	Y35	Z35	X36	Y36	Z36	X37	Y37	Z37	X38	Y38	Z38	X39	Y39	Z39	X40	Y40	Z40	X41	Y41	Z41	X42	Y42	Z42	X43	Y43	Z43	X44	Y44	Z44	X45	Y45	Z45	X46	Y46	Z46	X47	Y47	Z47	X48	Y48	Z48	X49	Y49	Z49	X50	Y50	Z50	X51	Y51	Z51
																																																																																																																																																										
113	1.12	-145.24463	1618.75244	-1072.46045	-158.41856	1623.93433	-939.86304	-273.47647	1577.18091	-1080.37427	-281.51398	1581.71692	-949.61322	-308.02197	1414.46191	-1013.64423	-334.67874	1100.63123	-1003.56091	-185.72867	1339.97974	-1016.06543	-138.54045	1175.93433	-1020.81213	-352.30624	1239.77283	-910.0907	-238.19559	1373.10059	-1170.67798	-246.7263	1173.96582	-1237.87744	-235.39375	1051.31689	-1248.58228	-203.60027	924.53705	-1247.56445	-180.69455	806.94586	-1216.84082	-203.46237	811.91211	-1267.85571	-186.51909	729.00018	-1258.45068	-221.96837	1365.24036	-854.90216	-195.13107	1143.99548	-781.10272	-165.76871	1034.6366	-769.88538	-136.41672	900.79596	-769.15497	-104.3319	807.26642	-807.27704	-126.76192	802.13397	-758.24237	-96.3413	735.91382	-767.05206	-174.28328	937.67157	-1127.43433	-158.51216	940.83002	-890.02509	-334.1882	956.34631	-1069.15637	-321.81152	969.98676	-920.14728	-176.93451	637.21252	-1180.62036	-129.65308	463.17566	-1162.48938	-263.73746	318.58655	-1154.32117	-393.98904	157.91013	-1109.04065	-445.61426	149.30446	-1066.73254	-293.33517	51.76453	-1098.88501	-209.01631	644.06781	-856.2525	-198.0406	464.58942	-896.65765	-252.35512	279.94305	-898.03448	-297.44528	69.0843	-948.73029	-343.34863	38.01118	-999.40057	-158.13257	32.12146	-958.48785	-233.00275	1683.65125	-1032.01074	NaN	NaN	NaN	NaN	NaN	NaN	NaN	NaN	NaN	NaN	NaN	NaN	NaN	NaN	NaN	NaN	NaN	NaN	NaN	NaN	NaN	NaN	NaN	NaN	NaN	NaN	NaN	NaN	NaN	NaN	NaN	NaN	NaN
114	1.13	-136.85008	1618.02942	-1072.74695	-149.76103	1623.47461	-940.14899	-265.44415	1577.37622	-1080.39807	-273.22818	1582.1731	-949.60345	-300.5383	1414.4248	-1013.33118	-327.72946	1100.6239	-1002.86829	-178.5206	1339.7312	-1015.95697	-131.51842	1175.65283	-1020.59863	-344.75037	1239.92871	-909.26001	-231.20607	1372.89294	-1170.49536	-241.85092	1173.79236	-1237.93176	-232.03711	1050.97607	-1248.81152	-201.54202	923.89972	-1247.85242	-179.65948	806.09961	-1217.23865	-202.6163	811.34314	-1268.09949	-186.61868	728.24524	-1258.8446	-214.18488	1365.36841	-854.86169	-186.07434	1144.3739	-780.85052	-156.08304	1035.25488	-769.59052	-125.62309	901.67786	-769.01965	-92.81904	808.35321	-807.15747	-115.19853	803.0199	-758.0968	-84.35699	736.93915	-767.06097	-167.08592	938.13098	-1126.84351	-151.66681	940.42084	-889.5932	-327.06686	956.35077	-1069.02905	-314.9483	969.72089	-919.89886	-165.33743	638.56549	-1180.02393	-115.20515	465.35867	-1161.02588	-245.08118	316.87949	-1153.52063	-370.49652	151.74638	-1108.94348	-421.99561	141.02332	-1066.89941	-265.49716	50.14351	-1098.54907	-203.65663	643.40735	-856.13721	-193.953	463.96091	-896.77557	-249.76285	279.71011	-898.19421	-297.06387	69.1445	-948.93231	-343.63599	38.83922	-998.84052	-158.02924	32.09666	-958.61096	-223.45985	1683.7594	-1029.44568	NaN	NaN	NaN	NaN	NaN	NaN	NaN	NaN	NaN	NaN	NaN	NaN	NaN	NaN	NaN	NaN	NaN	NaN	NaN	NaN	NaN	NaN	NaN	NaN	NaN	NaN	NaN	NaN	NaN	NaN	NaN	NaN	NaN
115	1.14	-128.48892	1617.21094	-1073.06775	-141.09341	1623.02539	-940.67847	-257.38837	1577.51929	-1080.45044	-264.89429	1582.58154	-949.61328	-293.15704	1414.45801	-1013.0484	-320.73782	1100.60596	-1002.20721	-171.24026	1339.46252	-1015.8811	-124.41904	1175.33264	-1020.34314	-337.20874	1240.00635	-908.48474	-224.20172	1372.5802	-1170.36414	-236.98962	1173.53723	-1237.81738	-228.54431	1050.58203	-1249.08667	-199.41415	923.24353	-1248.16833	-178.50584	805.20996	-1217.67224	-201.55576	810.71326	-1268.5105	-186.50319	727.39465	-1259.16248	-206.40683	1365.41016	-854.81281	-177.1333	1144.67371	-780.64386	-146.46086	1035.76123	-769.3017	-114.93968	902.42029	-768.77838	-81.35477	809.44214	-807.10706	-103.69019	803.85803	-758.10052	-72.38661	737.92542	-767.19733	-159.95851	938.51129	-1126.26013	-144.76451	939.99725	-889.24799	-320.14719	956.4928	-1068.97925	-308.07144	969.43054	-919.65112	-153.96022	639.86029	-1179.48328	-101.27355	467.48923	-1159.54834	-226.81361	315.08426	-1152.78284	-346.19485	145.39377	-1109.0116	-397.61343	132.29326	-1066.9165	-237.03374	48.52416	-1098.09644	-197.70261	642.47461	-856.63409	-189.98125	463.32288	-896.86908	-247.36296	279.47009	-898.31964	-296.63568	69.48796	-948.91235	-343.57983	39.29549	-998.77649	-157.94611	32.0747	-958.7041	NaN	NaN	NaN	NaN	NaN	NaN	NaN	NaN	NaN	NaN	NaN	NaN	NaN	NaN	NaN	NaN	NaN	NaN	NaN	NaN	NaN	NaN	NaN	NaN	NaN	NaN	NaN	NaN	NaN	NaN	NaN	NaN	NaN	NaN	NaN	NaN
116	1.15	-120.10658	1616.36816	-1073.41235	-132.61394	1622.34521	-940.77972	-249.30342	1577.58618	-1080.55676	-256.57639	1582.90308	-949.77832	-285.62933	1414.33679	-1012.83893	-313.68997	1100.48499	-1001.60248	-163.9453	1339.14185	-1015.78668	-117.35023	1174.92859	-1020.10938	-329.71378	1240.04895	-907.81042	-217.12643	1372.12402	-1170.23096	-231.79861	1173.13049	-1238.13367	-225.07408	1050.08423	-1249.26025	-197.19745	922.49292	-1248.52454	-177.19037	804.38	-1218.09033	-200.88283	809.74792	-1268.45947	-186.11856	726.52045	-1259.328	-198.82861	1365.36816	-854.74664	-168.26038	1144.87207	-780.45526	-136.90849	1036.17188	-769.08575	-104.30162	903.11011	-768.7453	-69.86736	810.47351	-807.15137	-92.25167	804.58197	-758.19537	-60.47298	738.92102	-767.43317	-152.74515	938.82654	-1125.71094	-138.45369	939.39661	-888.82263	-312.96875	956.26422	-1068.85095	-301.30981	969.10883	-919.43408	-143.12112	640.98969	-1178.74988	-87.77566	469.59149	-1158.02832	-208.53214	313.11505	-1151.7887	-321.73718	138.77087	-1108.27197	-372.60428	123.44705	-1066.68872	-208.44904	46.66264	-1097.62634	-193.60951	642.11755	-856.10193	-186.24298	462.71625	-896.94977	-245.08463	279.26266	-898.37817	-296.33472	69.69785	-948.9082	-343.35828	39.67342	-998.66663	-157.86436	32.0295	-958.77112	-204.9583	1683.09399	-1030.55078	NaN	NaN	NaN	NaN	NaN	NaN	NaN	NaN	NaN	NaN	NaN	NaN	NaN	NaN	NaN	NaN	NaN	NaN	NaN	NaN	NaN	NaN	NaN	NaN	NaN	NaN	NaN	NaN	NaN	NaN	NaN	NaN	NaN
